<?xml version="1.0" encoding="UTF-8"?>
<svg width="24px" height="24px" viewBox="0 0 24 24" version="1.1" xmlns="http://www.w3.org/2000/svg" xmlns:xlink="http://www.w3.org/1999/xlink">
    <title>bookmarks-label-tag-checkmark</title>
    <g id="Edutor_PC_main" stroke="none" stroke-width="1" fill="none" fill-rule="evenodd">
        <g id="패키지소개" transform="translate(-1107.000000, -2665.000000)">
            <g id="bookmarks-label-tag-checkmark" transform="translate(1107.000000, 2665.000000)">
                <g id="Group" transform="translate(3.000250, 3.000000)" stroke="#FFFFFF" stroke-linecap="round" stroke-linejoin="round" stroke-width="1.5">
                    <path d="M12.80675,4.193 C12.95175,4.338 12.95175,4.573 12.80675,4.718 C12.66175,4.863 12.42675,4.863 12.28175,4.718 C12.13675,4.573 12.13675,4.338 12.28175,4.193 C12.42775,4.048 12.66175,4.048 12.80675,4.193" id="Path"></path>
                    <path d="M15.07375,9.284 L16.38275,7.975 C16.77775,7.579 16.99975,7.045 16.99975,6.487 L16.99975,2.102 C16.99975,0.941 16.05875,0 14.89575,0 L10.51075,0 C9.95375,0 9.41875,0.222 9.02575,0.616 L0.61575,9.026 C-0.20525,9.847 -0.20525,11.178 0.61575,11.999 L5.00075,16.384 C5.82175,17.205 7.15275,17.205 7.97375,16.384 L9.28375,15.074" id="Path"></path>
                    <polyline id="Path" points="15.24975 12.625 13.06175 14.813 11.74975 13.5"></polyline>
                    <path d="M13.49975,17.9999986 C11.01475,17.9999986 8.99975,15.985 8.99975,13.4999986 C8.99975,11.066 11.06975,8.998 13.50275,8.99999855 C15.98675,9.002 17.99975,11.016 17.99975,13.4999986 C17.99975,15.985 15.98575,17.9999986 13.49975,17.9999986" id="Path"></path>
                </g>
                <polygon id="Path" points="0 0 24 0 24 24 0 24"></polygon>
            </g>
        </g>
    </g>
</svg>